<!-- icon666.com - MILLIONS vector ICONS FREE --><svg viewBox="0 0 512 512" xmlns="http://www.w3.org/2000/svg"><path d="m256 0c-140.960938 0-256 115.050781-256 256 0 140.960938 115.050781 256 256 256 140.960938 0 256-115.050781 256-256 0-140.960938-115.050781-256-256-256zm0 482c-124.617188 0-226-101.382812-226-226s101.382812-226 226-226 226 101.382812 226 226-101.382812 226-226 226zm0 0"></path><path d="m256 61c-107.523438 0-195 87.476562-195 195s87.476562 195 195 195 195-87.476562 195-195-87.476562-195-195-195zm0 360c-90.980469 0-165-74.019531-165-165s74.019531-165 165-165 165 74.019531 165 165-74.019531 165-165 165zm0 0"></path><path d="m301 136c-24.46875 0-80.757812 0-90 0v90h-30v30h30v30h-30v30h30v60h30v-60h75v-30h-75v-30h60c33.085938 0 60-26.914062 60-60s-26.914062-60-60-60zm0 90h-60v-60h60c16.542969 0 30 13.457031 30 30s-13.457031 30-30 30zm0 0"></path></svg>